<?xml version="1.0" encoding="UTF-8" standalone="no"?>
<!-- Generator: Adobe Illustrator 19.0.0, SVG Export Plug-In . SVG Version: 6.00 Build 0)  -->

<!--suppress ALL -->

<svg
        xmlns:cc="http://creativecommons.org/ns#"
        xmlns:dc="http://purl.org/dc/elements/1.1/"
        xmlns:inkscape="http://www.inkscape.org/namespaces/inkscape"
        xmlns:rdf="http://www.w3.org/1999/02/22-rdf-syntax-ns#"
        xmlns:sodipodi="http://sodipodi.sourceforge.net/DTD/sodipodi-0.dtd"
        xmlns:svg="http://www.w3.org/2000/svg"
        xmlns:xsi="http://www.w3.org/2001/XMLSchema-instance"
        height="713.33893"
        id="Capa_1"
        inkscape:version="0.92.3 (2405546, 2018-03-11)"
        sodipodi:docname="run-circle-dxc.svg"
        version="1.1"
        viewBox="0 0 713.33893 713.33893"
        width="713.33893"
        x="0px"
        xml:space="preserve"
        xmlns="http://www.w3.org/2000/svg"
        xsi:schemaLocation="http://creativecommons.org/ns# "
        y="0px"><metadata
   id="metadata57"><rdf:RDF><cc:Work
       rdf:about=""><dc:format>image/svg+xml</dc:format><dc:type
        rdf:resource="http://purl.org/dc/dcmitype/StillImage"/><dc:title/></cc:Work></rdf:RDF></metadata>
  <defs
          id="defs55"/>
  <sodipodi:namedview
          bordercolor="#666666"
          borderopacity="1"
          gridtolerance="10"
          guidetolerance="10"
          id="namedview53"
          inkscape:current-layer="Capa_1"
          inkscape:cx="-6.822814"
          inkscape:cy="358.67038"
          inkscape:pagecheckerboard="true"
          inkscape:pageopacity="0"
          inkscape:pageshadow="2"
          inkscape:snap-object-midpoints="true"
          inkscape:window-height="1027"
          inkscape:window-maximized="1"
          inkscape:window-width="1920"
          inkscape:window-x="1912"
          inkscape:window-y="-8"
          inkscape:zoom="0.65186406"
          objecttolerance="10"
          pagecolor="#ffffff"
          showgrid="false"
          showguides="false"/>
  <circle
          cx="356.66946"
          cy="356.66946"
          id="path3762"
          r="356.66946"
          style="fill:#666666;stroke-width:1.28808868;fill-opacity:1"/>
  <g
          id="g8"
          style="fill:#ffed00;fill-opacity:1"
          transform="translate(100.66946,100.66946)">
	<path
            d="M 121,98.5 H 45 c -8.291,0 -15,-6.709 -15,-15 0,-8.291 6.709,-15 15,-15 h 76 c 8.291,0 15,6.709 15,15 0,8.291 -6.709,15 -15,15 z"
            id="path2"
            inkscape:connector-curvature="0"
            style="fill:#ffed00;fill-opacity:1"/>
    <path
            d="M 121,218.5 H 45 c -8.291,0 -15,-6.709 -15,-15 0,-8.291 6.709,-15 15,-15 h 76 c 8.291,0 15,6.709 15,15 0,8.291 -6.709,15 -15,15 z"
            id="path4"
            inkscape:connector-curvature="0"
            style="fill:#ffed00;fill-opacity:1"/>
    <path
            d="M 91,158.5 H 15 c -8.291,0 -15,-6.709 -15,-15 0,-8.291 6.709,-15 15,-15 h 76 c 8.291,0 15,6.709 15,15 0,8.291 -6.709,15 -15,15 z"
            id="path6"
            inkscape:connector-curvature="0"
            style="fill:#ffed00;fill-opacity:1"/>
</g>
  <g
          id="g14"
          style="fill:#d9d9d9;fill-opacity:1"
          transform="translate(100.66946,100.66946)">
	<path
            d="m 280.141,51.039 c -11.924,-7.925 -27.744,-6.357 -37.852,3.75 l -82.5,82.5 c -11.719,11.719 -11.719,30.703 0,42.422 11.719,11.719 30.703,11.719 42.422,0 l 65.112,-65.112 46.593,33.563 63.724,-29.623 z"
            id="path10"
            inkscape:connector-curvature="0"
            style="fill:#d9d9d9;fill-opacity:1"/>
    <path
            d="m 219.789,242.289 -195,195 c -11.719,11.719 -11.719,30.703 0,42.422 11.718,11.718 30.703,11.719 42.422,0 L 241,305.922 Z"
            id="path12"
            inkscape:connector-curvature="0"
            style="fill:#d9d9d9;fill-opacity:1"/>
</g>
  <g
          id="g20"
          style="fill:#000000;fill-opacity:1"
          transform="translate(100.66946,100.66946)">
	<path
            d="m 482,203.5 h -91 v -60 c 0,-11.793 -7.134,-22.955 -18.536,-27.684 -11.48,-4.748 -24.401,-1.812 -32.684,6.482 L 219.789,242.289 c -11.719,11.719 -11.719,30.703 0,42.422 l 68.789,68.789 -83.789,83.789 c -11.719,11.719 -11.719,30.703 0,42.422 11.718,11.718 30.703,11.719 42.422,0 l 105,-105 c 11.719,-11.719 11.719,-30.703 0,-42.422 L 283.422,263.5 331,215.922 V 233.5 c 0,16.567 13.433,30 30,30 h 121 c 16.567,0 30,-13.433 30,-30 0,-16.567 -13.433,-30 -30,-30 z"
            id="path16"
            inkscape:connector-curvature="0"
            style="fill:#000000;fill-opacity:1"/>
    <circle
            cx="436"
            cy="68.5"
            id="circle18"
            r="45"
            style="fill:#000000;fill-opacity:1"/>
</g>
  <g
          id="g22"
          transform="translate(100.66946,100.66946)">
</g>
  <g
          id="g24"
          transform="translate(100.66946,100.66946)">
</g>
  <g
          id="g26"
          transform="translate(100.66946,100.66946)">
</g>
  <g
          id="g28"
          transform="translate(100.66946,100.66946)">
</g>
  <g
          id="g30"
          transform="translate(100.66946,100.66946)">
</g>
  <g
          id="g32"
          transform="translate(100.66946,100.66946)">
</g>
  <g
          id="g34"
          transform="translate(100.66946,100.66946)">
</g>
  <g
          id="g36"
          transform="translate(100.66946,100.66946)">
</g>
  <g
          id="g38"
          transform="translate(100.66946,100.66946)">
</g>
  <g
          id="g40"
          transform="translate(100.66946,100.66946)">
</g>
  <g
          id="g42"
          transform="translate(100.66946,100.66946)">
</g>
  <g
          id="g44"
          transform="translate(100.66946,100.66946)">
</g>
  <g
          id="g46"
          transform="translate(100.66946,100.66946)">
</g>
  <g
          id="g48"
          transform="translate(100.66946,100.66946)">
</g>
  <g
          id="g50"
          transform="translate(100.66946,100.66946)">
</g>
</svg>
